<?xml version="1.0" encoding="utf-8"?>
<svg xmlns="http://www.w3.org/2000/svg" version="1.1" width="1000" height="800">

<circle cx="100" cy="100" r="15" fill="rgb(0,0,0)" />
<text x="80" y="80" fill="rgb(255,128,128)" >0</text>
<circle cx="400" cy="100" r="15" fill="rgb(0,0,0)" />
<text x="380" y="80" fill="rgb(255,128,128)" >1</text>
<circle cx="200" cy="200" r="15" fill="rgb(0,0,0)" />
<text x="180" y="180" fill="rgb(255,128,128)" >2</text>
<circle cx="300" cy="200" r="15" fill="rgb(0,0,0)" />
<text x="280" y="180" fill="rgb(255,128,128)" >3</text>
<circle cx="200" cy="300" r="15" fill="rgb(0,0,0)" />
<text x="180" y="280" fill="rgb(255,128,128)" >4</text>
<circle cx="300" cy="300" r="15" fill="rgb(0,0,0)" />
<text x="280" y="280" fill="rgb(255,128,128)" >5</text>
<circle cx="100" cy="400" r="15" fill="rgb(0,0,0)" />
<text x="80" y="380" fill="rgb(255,128,128)" >6</text>
<circle cx="400" cy="400" r="15" fill="rgb(0,0,0)" />
<text x="380" y="380" fill="rgb(255,128,128)" >7</text>
<line x1="100" y1="100" x2="400" y2="100" stroke="rgb(0,0,0)" />
<text x="250" y="100" fill="blue" >0</text>
<line x1="100" y1="100" x2="100" y2="400" stroke="rgb(0,0,0)" />
<text x="100" y="250" fill="blue" >1</text>
<line x1="100" y1="100" x2="200" y2="200" stroke="rgb(0,0,0)" />
<text x="150" y="150" fill="blue" >2</text>
<line x1="200" y1="200" x2="300" y2="200" stroke="rgb(0,0,0)" />
<text x="250" y="200" fill="blue" >3</text>
<line x1="400" y1="100" x2="300" y2="200" stroke="rgb(0,0,0)" />
<text x="350" y="150" fill="blue" >4</text>
<line x1="400" y1="100" x2="400" y2="400" stroke="rgb(0,0,0)" />
<text x="400" y="250" fill="blue" >5</text>
<line x1="200" y1="200" x2="200" y2="300" stroke="rgb(0,0,0)" />
<text x="200" y="250" fill="blue" >6</text>
<line x1="300" y1="200" x2="300" y2="300" stroke="rgb(0,0,0)" />
<text x="300" y="250" fill="blue" >7</text>
<line x1="200" y1="300" x2="100" y2="400" stroke="rgb(0,0,0)" />
<text x="150" y="350" fill="blue" >8</text>
<line x1="200" y1="300" x2="300" y2="300" stroke="rgb(0,0,0)" />
<text x="250" y="300" fill="blue" >9</text>
<line x1="300" y1="300" x2="400" y2="400" stroke="rgb(0,0,0)" />
<text x="350" y="350" fill="blue" >10</text>
<line x1="100" y1="400" x2="400" y2="400" stroke="rgb(0,0,0)" />
<text x="250" y="400" fill="blue" >11</text>
<line x1="500" y1="100" x2="500" y2="400" stroke="rgb(0,0,0)" />
<polygon points=" 500,90 495,100 505,100" style="fill:rgb(0,0,0)" />
<line x1="500" y1="400" x2="1016" y2="400" stroke="blue" />
<polygon points=" 1001,400 991,395 991,405" style="fill:blue" />
<circle cx="680" cy="290" r="3" fill="red" />
<circle cx="827" cy="290" r="3" fill="red" />
<circle cx="764" cy="310" r="3" fill="red" />
<circle cx="806" cy="260" r="3" fill="red" />
<circle cx="785" cy="260" r="3" fill="red" />
<circle cx="701" cy="300" r="3" fill="red" />
<circle cx="869" cy="250" r="3" fill="red" />
<circle cx="848" cy="300" r="3" fill="red" />
<circle cx="785" cy="320" r="3" fill="red" />
<circle cx="827" cy="270" r="3" fill="red" />
<circle cx="806" cy="270" r="3" fill="red" />
<circle cx="806" cy="290" r="3" fill="red" />
<circle cx="785" cy="340" r="3" fill="red" />
<circle cx="722" cy="360" r="3" fill="red" />
<circle cx="764" cy="310" r="3" fill="red" />
<circle cx="743" cy="310" r="3" fill="red" />
<circle cx="953" cy="290" r="3" fill="red" />
<circle cx="890" cy="310" r="3" fill="red" />
<circle cx="932" cy="260" r="3" fill="red" />
<circle cx="911" cy="260" r="3" fill="red" />
<circle cx="869" cy="360" r="3" fill="red" />
<circle cx="911" cy="310" r="3" fill="red" />
<circle cx="848" cy="330" r="3" fill="red" />
<circle cx="827" cy="330" r="3" fill="red" />
<circle cx="869" cy="280" r="3" fill="red" />
<circle cx="785" cy="270" r="3" fill="red" />
<circle cx="764" cy="320" r="3" fill="red" />
<circle cx="701" cy="340" r="3" fill="red" />
<circle cx="743" cy="290" r="3" fill="red" />
<circle cx="722" cy="290" r="3" fill="red" />
<circle cx="932" cy="270" r="3" fill="red" />
<circle cx="869" cy="290" r="3" fill="red" />
<circle cx="911" cy="240" r="3" fill="red" />
<circle cx="890" cy="240" r="3" fill="red" />
<circle cx="848" cy="340" r="3" fill="red" />
<circle cx="890" cy="290" r="3" fill="red" />
<circle cx="827" cy="310" r="3" fill="red" />
<circle cx="806" cy="310" r="3" fill="red" />
<circle cx="848" cy="260" r="3" fill="red" />
<circle cx="806" cy="280" r="3" fill="red" />
<circle cx="785" cy="330" r="3" fill="red" />
<circle cx="722" cy="350" r="3" fill="red" />
<circle cx="764" cy="300" r="3" fill="red" />
<circle cx="743" cy="300" r="3" fill="red" />
<circle cx="953" cy="280" r="3" fill="red" />
<circle cx="890" cy="300" r="3" fill="red" />
<circle cx="932" cy="250" r="3" fill="red" />
<circle cx="911" cy="250" r="3" fill="red" />
<circle cx="869" cy="350" r="3" fill="red" />
<circle cx="911" cy="300" r="3" fill="red" />
<circle cx="848" cy="320" r="3" fill="red" />
<circle cx="827" cy="320" r="3" fill="red" />
<circle cx="890" cy="320" r="3" fill="red" />
<circle cx="827" cy="340" r="3" fill="red" />
<circle cx="869" cy="290" r="3" fill="red" />
<circle cx="848" cy="290" r="3" fill="red" />
<circle cx="848" cy="340" r="3" fill="red" />
<circle cx="785" cy="360" r="3" fill="red" />
<circle cx="764" cy="360" r="3" fill="red" />
<circle cx="806" cy="310" r="3" fill="red" />
<circle cx="974" cy="340" r="3" fill="red" />
<circle cx="1016" cy="290" r="3" fill="red" />
<circle cx="932" cy="310" r="3" fill="red" />
<circle cx="974" cy="260" r="3" fill="red" />
<circle cx="932" cy="360" r="3" fill="red" />
<circle cx="890" cy="330" r="3" fill="red" />
<circle cx="680" cy="300" r="3" fill="red" />
<circle cx="617" cy="320" r="3" fill="red" />
<circle cx="659" cy="270" r="3" fill="red" />
<circle cx="638" cy="270" r="3" fill="red" />
<circle cx="722" cy="260" r="3" fill="red" />
<circle cx="701" cy="310" r="3" fill="red" />
<circle cx="638" cy="330" r="3" fill="red" />
<circle cx="680" cy="280" r="3" fill="red" />
<circle cx="659" cy="280" r="3" fill="red" />
<circle cx="806" cy="300" r="3" fill="red" />
<circle cx="743" cy="320" r="3" fill="red" />
<circle cx="785" cy="270" r="3" fill="red" />
<circle cx="764" cy="270" r="3" fill="red" />
<circle cx="722" cy="370" r="3" fill="red" />
<circle cx="764" cy="320" r="3" fill="red" />
<circle cx="743" cy="320" r="3" fill="red" />
<circle cx="701" cy="340" r="3" fill="red" />
<circle cx="680" cy="340" r="3" fill="red" />
<circle cx="722" cy="290" r="3" fill="red" />
<circle cx="638" cy="280" r="3" fill="red" />
<circle cx="617" cy="330" r="3" fill="red" />
<circle cx="554" cy="350" r="3" fill="red" />
<circle cx="596" cy="300" r="3" fill="red" />
<circle cx="575" cy="300" r="3" fill="red" />
<circle cx="785" cy="280" r="3" fill="red" />
<circle cx="722" cy="300" r="3" fill="red" />
<circle cx="764" cy="250" r="3" fill="red" />
<circle cx="743" cy="250" r="3" fill="red" />
<circle cx="701" cy="350" r="3" fill="red" />
<circle cx="743" cy="300" r="3" fill="red" />
<circle cx="722" cy="300" r="3" fill="red" />
<circle cx="680" cy="320" r="3" fill="red" />
<circle cx="659" cy="320" r="3" fill="red" />
<circle cx="701" cy="270" r="3" fill="red" />
<circle cx="659" cy="290" r="3" fill="red" />
<circle cx="638" cy="340" r="3" fill="red" />
<circle cx="575" cy="360" r="3" fill="red" />
<circle cx="617" cy="310" r="3" fill="red" />
<circle cx="596" cy="310" r="3" fill="red" />
<circle cx="806" cy="290" r="3" fill="red" />
<circle cx="743" cy="310" r="3" fill="red" />
<circle cx="785" cy="260" r="3" fill="red" />
<circle cx="764" cy="260" r="3" fill="red" />
<circle cx="722" cy="360" r="3" fill="red" />
<circle cx="764" cy="310" r="3" fill="red" />
<circle cx="743" cy="310" r="3" fill="red" />
<circle cx="701" cy="330" r="3" fill="red" />
<circle cx="680" cy="330" r="3" fill="red" />
<circle cx="743" cy="330" r="3" fill="red" />
<circle cx="680" cy="350" r="3" fill="red" />
<circle cx="722" cy="300" r="3" fill="red" />
<circle cx="701" cy="300" r="3" fill="red" />
<circle cx="701" cy="350" r="3" fill="red" />
<circle cx="680" cy="350" r="3" fill="red" />
<circle cx="638" cy="370" r="3" fill="red" />
<circle cx="617" cy="370" r="3" fill="red" />
<circle cx="659" cy="320" r="3" fill="red" />
<circle cx="827" cy="350" r="3" fill="red" />
<circle cx="869" cy="300" r="3" fill="red" />
<circle cx="848" cy="300" r="3" fill="red" />
<circle cx="785" cy="320" r="3" fill="red" />
<circle cx="827" cy="270" r="3" fill="red" />
<circle cx="785" cy="370" r="3" fill="red" />
<circle cx="764" cy="370" r="3" fill="red" />
<circle cx="806" cy="320" r="3" fill="red" />
<circle cx="743" cy="340" r="3" fill="red" />
<circle cx="680" cy="330" r="3" fill="red" />
<circle cx="617" cy="350" r="3" fill="red" />
<circle cx="659" cy="300" r="3" fill="red" />
<circle cx="638" cy="300" r="3" fill="red" />
<circle cx="764" cy="350" r="3" fill="red" />
<circle cx="806" cy="300" r="3" fill="red" />
<circle cx="785" cy="300" r="3" fill="red" />
<circle cx="743" cy="320" r="3" fill="red" />
<circle cx="722" cy="320" r="3" fill="red" />
<circle cx="764" cy="270" r="3" fill="red" />
<circle cx="722" cy="290" r="3" fill="red" />
<circle cx="701" cy="340" r="3" fill="red" />
<circle cx="638" cy="360" r="3" fill="red" />
<circle cx="680" cy="310" r="3" fill="red" />
<circle cx="659" cy="310" r="3" fill="red" />
<circle cx="869" cy="290" r="3" fill="red" />
<circle cx="806" cy="310" r="3" fill="red" />
<circle cx="848" cy="260" r="3" fill="red" />
<circle cx="827" cy="260" r="3" fill="red" />
<circle cx="785" cy="360" r="3" fill="red" />
<circle cx="827" cy="310" r="3" fill="red" />
<circle cx="806" cy="310" r="3" fill="red" />
<circle cx="764" cy="330" r="3" fill="red" />
<circle cx="743" cy="330" r="3" fill="red" />
<circle cx="806" cy="330" r="3" fill="red" />
<circle cx="743" cy="350" r="3" fill="red" />
<circle cx="785" cy="300" r="3" fill="red" />
<circle cx="764" cy="300" r="3" fill="red" />
<circle cx="764" cy="350" r="3" fill="red" />
<circle cx="743" cy="350" r="3" fill="red" />
<circle cx="701" cy="370" r="3" fill="red" />
<circle cx="680" cy="370" r="3" fill="red" />
<circle cx="722" cy="320" r="3" fill="red" />
<circle cx="890" cy="350" r="3" fill="red" />
<circle cx="932" cy="300" r="3" fill="red" />
<circle cx="911" cy="300" r="3" fill="red" />
<circle cx="848" cy="320" r="3" fill="red" />
<circle cx="890" cy="270" r="3" fill="red" />
<circle cx="848" cy="370" r="3" fill="red" />
<circle cx="827" cy="370" r="3" fill="red" />
<circle cx="869" cy="320" r="3" fill="red" />
<circle cx="806" cy="340" r="3" fill="red" />
<circle cx="785" cy="310" r="3" fill="red" />
<circle cx="722" cy="330" r="3" fill="red" />
<circle cx="764" cy="280" r="3" fill="red" />
<circle cx="743" cy="280" r="3" fill="red" />
<circle cx="743" cy="330" r="3" fill="red" />
<circle cx="722" cy="330" r="3" fill="red" />
<circle cx="680" cy="350" r="3" fill="red" />
<circle cx="659" cy="350" r="3" fill="red" />
<circle cx="701" cy="300" r="3" fill="red" />
<circle cx="869" cy="330" r="3" fill="red" />
<circle cx="911" cy="280" r="3" fill="red" />
<circle cx="890" cy="280" r="3" fill="red" />
<circle cx="827" cy="300" r="3" fill="red" />
<circle cx="869" cy="250" r="3" fill="red" />
<circle cx="827" cy="350" r="3" fill="red" />
<circle cx="806" cy="350" r="3" fill="red" />
<circle cx="848" cy="300" r="3" fill="red" />
<circle cx="785" cy="320" r="3" fill="red" />
<circle cx="806" cy="320" r="3" fill="red" />
<circle cx="743" cy="340" r="3" fill="red" />
<circle cx="785" cy="290" r="3" fill="red" />
<circle cx="764" cy="290" r="3" fill="red" />
<circle cx="764" cy="340" r="3" fill="red" />
<circle cx="743" cy="340" r="3" fill="red" />
<circle cx="701" cy="360" r="3" fill="red" />
<circle cx="680" cy="360" r="3" fill="red" />
<circle cx="890" cy="340" r="3" fill="red" />
<circle cx="932" cy="290" r="3" fill="red" />
<circle cx="911" cy="290" r="3" fill="red" />
<circle cx="848" cy="310" r="3" fill="red" />
<circle cx="848" cy="360" r="3" fill="red" />
<circle cx="827" cy="360" r="3" fill="red" />
<circle cx="869" cy="330" r="3" fill="red" />
<circle cx="848" cy="330" r="3" fill="red" />
<circle cx="785" cy="350" r="3" fill="red" />
<circle cx="827" cy="300" r="3" fill="red" />
<circle cx="806" cy="350" r="3" fill="red" />
<circle cx="743" cy="370" r="3" fill="red" />
<circle cx="932" cy="350" r="3" fill="red" />
<circle cx="974" cy="300" r="3" fill="red" />
<circle cx="890" cy="370" r="3" fill="red" />
<circle cx="659" cy="240" r="3" fill="red" />
<circle cx="743" cy="280" r="3" fill="red" />
<circle cx="680" cy="300" r="3" fill="red" />
<circle cx="722" cy="250" r="3" fill="red" />
<circle cx="701" cy="250" r="3" fill="red" />
<circle cx="785" cy="240" r="3" fill="red" />
<circle cx="764" cy="290" r="3" fill="red" />
<circle cx="701" cy="310" r="3" fill="red" />
<circle cx="743" cy="260" r="3" fill="red" />
<circle cx="722" cy="260" r="3" fill="red" />
<circle cx="869" cy="280" r="3" fill="red" />
<circle cx="806" cy="300" r="3" fill="red" />
<circle cx="848" cy="250" r="3" fill="red" />
<circle cx="827" cy="250" r="3" fill="red" />
<circle cx="785" cy="350" r="3" fill="red" />
<circle cx="827" cy="300" r="3" fill="red" />
<circle cx="764" cy="320" r="3" fill="red" />
<circle cx="743" cy="320" r="3" fill="red" />
<circle cx="785" cy="270" r="3" fill="red" />
<circle cx="596" cy="270" r="3" fill="red" />
<circle cx="764" cy="220" r="3" fill="red" />
<circle cx="743" cy="270" r="3" fill="red" />
<circle cx="680" cy="290" r="3" fill="red" />
<circle cx="722" cy="240" r="3" fill="red" />
<circle cx="701" cy="240" r="3" fill="red" />
<circle cx="701" cy="260" r="3" fill="red" />
<circle cx="680" cy="310" r="3" fill="red" />
<circle cx="617" cy="330" r="3" fill="red" />
<circle cx="659" cy="280" r="3" fill="red" />
<circle cx="638" cy="280" r="3" fill="red" />
<circle cx="848" cy="260" r="3" fill="red" />
<circle cx="785" cy="280" r="3" fill="red" />
<circle cx="827" cy="230" r="3" fill="red" />
<circle cx="806" cy="230" r="3" fill="red" />
<circle cx="764" cy="330" r="3" fill="red" />
<circle cx="806" cy="280" r="3" fill="red" />
<circle cx="743" cy="300" r="3" fill="red" />
<circle cx="722" cy="300" r="3" fill="red" />
<circle cx="764" cy="250" r="3" fill="red" />
<circle cx="722" cy="270" r="3" fill="red" />
<circle cx="701" cy="320" r="3" fill="red" />
<circle cx="638" cy="340" r="3" fill="red" />
<circle cx="680" cy="290" r="3" fill="red" />
<circle cx="659" cy="290" r="3" fill="red" />
<circle cx="869" cy="270" r="3" fill="red" />
<circle cx="806" cy="290" r="3" fill="red" />
<circle cx="848" cy="240" r="3" fill="red" />
<circle cx="827" cy="240" r="3" fill="red" />
<circle cx="785" cy="340" r="3" fill="red" />
<circle cx="827" cy="290" r="3" fill="red" />
<circle cx="764" cy="310" r="3" fill="red" />
<circle cx="743" cy="310" r="3" fill="red" />
<circle cx="806" cy="310" r="3" fill="red" />
<circle cx="743" cy="330" r="3" fill="red" />
<circle cx="785" cy="280" r="3" fill="red" />
<circle cx="764" cy="280" r="3" fill="red" />
<circle cx="764" cy="330" r="3" fill="red" />
<circle cx="701" cy="350" r="3" fill="red" />
<circle cx="680" cy="350" r="3" fill="red" />
<circle cx="722" cy="300" r="3" fill="red" />
<circle cx="890" cy="330" r="3" fill="red" />
<circle cx="932" cy="280" r="3" fill="red" />
<circle cx="848" cy="300" r="3" fill="red" />
<circle cx="890" cy="250" r="3" fill="red" />
<circle cx="848" cy="350" r="3" fill="red" />
<circle cx="806" cy="320" r="3" fill="red" />
<circle cx="659" cy="270" r="3" fill="red" />
<circle cx="806" cy="270" r="3" fill="red" />
<circle cx="743" cy="290" r="3" fill="red" />
<circle cx="785" cy="240" r="3" fill="red" />
<circle cx="764" cy="240" r="3" fill="red" />
<circle cx="743" cy="310" r="3" fill="red" />
<circle cx="680" cy="330" r="3" fill="red" />
<circle cx="722" cy="280" r="3" fill="red" />
<circle cx="701" cy="280" r="3" fill="red" />
<circle cx="827" cy="330" r="3" fill="red" />
<circle cx="869" cy="280" r="3" fill="red" />
<circle cx="806" cy="300" r="3" fill="red" />
<circle cx="785" cy="300" r="3" fill="red" />
<circle cx="827" cy="250" r="3" fill="red" />
<circle cx="785" cy="270" r="3" fill="red" />
<circle cx="764" cy="320" r="3" fill="red" />
<circle cx="701" cy="340" r="3" fill="red" />
<circle cx="743" cy="290" r="3" fill="red" />
<circle cx="722" cy="290" r="3" fill="red" />
<circle cx="932" cy="270" r="3" fill="red" />
<circle cx="869" cy="290" r="3" fill="red" />
<circle cx="911" cy="240" r="3" fill="red" />
<circle cx="890" cy="240" r="3" fill="red" />
<circle cx="848" cy="340" r="3" fill="red" />
<circle cx="890" cy="290" r="3" fill="red" />
<circle cx="827" cy="310" r="3" fill="red" />
<circle cx="806" cy="310" r="3" fill="red" />
<circle cx="869" cy="310" r="3" fill="red" />
<circle cx="806" cy="330" r="3" fill="red" />
<circle cx="848" cy="280" r="3" fill="red" />
<circle cx="827" cy="280" r="3" fill="red" />
<circle cx="827" cy="330" r="3" fill="red" />
<circle cx="764" cy="350" r="3" fill="red" />
<circle cx="743" cy="350" r="3" fill="red" />
<circle cx="785" cy="300" r="3" fill="red" />
<circle cx="953" cy="330" r="3" fill="red" />
<circle cx="995" cy="280" r="3" fill="red" />
<circle cx="911" cy="300" r="3" fill="red" />
<circle cx="953" cy="250" r="3" fill="red" />
<circle cx="911" cy="350" r="3" fill="red" />
<circle cx="869" cy="320" r="3" fill="red" />
<circle cx="764" cy="250" r="3" fill="red" />
<circle cx="743" cy="300" r="3" fill="red" />
<circle cx="680" cy="320" r="3" fill="red" />
<circle cx="722" cy="270" r="3" fill="red" />
<circle cx="701" cy="270" r="3" fill="red" />
<circle cx="911" cy="250" r="3" fill="red" />
<circle cx="848" cy="270" r="3" fill="red" />
<circle cx="890" cy="220" r="3" fill="red" />
<circle cx="869" cy="220" r="3" fill="red" />
<circle cx="827" cy="320" r="3" fill="red" />
<circle cx="869" cy="270" r="3" fill="red" />
<circle cx="806" cy="290" r="3" fill="red" />
<circle cx="785" cy="290" r="3" fill="red" />
<circle cx="848" cy="290" r="3" fill="red" />
<circle cx="785" cy="310" r="3" fill="red" />
<circle cx="827" cy="260" r="3" fill="red" />
<circle cx="806" cy="260" r="3" fill="red" />
<circle cx="806" cy="310" r="3" fill="red" />
<circle cx="743" cy="330" r="3" fill="red" />
<circle cx="722" cy="330" r="3" fill="red" />
<circle cx="764" cy="280" r="3" fill="red" />
<circle cx="932" cy="310" r="3" fill="red" />
<circle cx="974" cy="260" r="3" fill="red" />
<circle cx="890" cy="280" r="3" fill="red" />
<circle cx="932" cy="230" r="3" fill="red" />
<circle cx="890" cy="330" r="3" fill="red" />
<circle cx="848" cy="300" r="3" fill="red" />
<circle cx="869" cy="300" r="3" fill="red" />
<circle cx="806" cy="320" r="3" fill="red" />
<circle cx="848" cy="270" r="3" fill="red" />
<circle cx="827" cy="270" r="3" fill="red" />
<circle cx="827" cy="320" r="3" fill="red" />
<circle cx="764" cy="340" r="3" fill="red" />
<circle cx="743" cy="340" r="3" fill="red" />
<circle cx="953" cy="320" r="3" fill="red" />
<circle cx="995" cy="270" r="3" fill="red" />
<circle cx="911" cy="290" r="3" fill="red" />
<circle cx="911" cy="340" r="3" fill="red" />
<circle cx="932" cy="310" r="3" fill="red" />
<circle cx="848" cy="330" r="3" fill="red" />
<circle cx="890" cy="280" r="3" fill="red" />
<circle cx="806" cy="350" r="3" fill="red" />
<circle cx="659" cy="280" r="3" fill="red" />
<circle cx="596" cy="300" r="3" fill="red" />
<circle cx="638" cy="250" r="3" fill="red" />
<circle cx="617" cy="250" r="3" fill="red" />
<circle cx="680" cy="340" r="3" fill="red" />
<circle cx="722" cy="290" r="3" fill="red" />
<circle cx="701" cy="290" r="3" fill="red" />
<circle cx="659" cy="310" r="3" fill="red" />
<circle cx="638" cy="310" r="3" fill="red" />
<circle cx="680" cy="260" r="3" fill="red" />
<circle cx="785" cy="280" r="3" fill="red" />
<circle cx="722" cy="300" r="3" fill="red" />
<circle cx="764" cy="250" r="3" fill="red" />
<circle cx="743" cy="250" r="3" fill="red" />
<circle cx="701" cy="350" r="3" fill="red" />
<circle cx="743" cy="300" r="3" fill="red" />
<circle cx="722" cy="300" r="3" fill="red" />
<circle cx="680" cy="320" r="3" fill="red" />
<circle cx="659" cy="320" r="3" fill="red" />
<circle cx="806" cy="340" r="3" fill="red" />
<circle cx="848" cy="290" r="3" fill="red" />
<circle cx="827" cy="290" r="3" fill="red" />
<circle cx="764" cy="310" r="3" fill="red" />
<circle cx="806" cy="260" r="3" fill="red" />
<circle cx="764" cy="360" r="3" fill="red" />
<circle cx="743" cy="360" r="3" fill="red" />
<circle cx="785" cy="310" r="3" fill="red" />
<circle cx="722" cy="330" r="3" fill="red" />
<circle cx="617" cy="260" r="3" fill="red" />
<circle cx="596" cy="310" r="3" fill="red" />
<circle cx="533" cy="330" r="3" fill="red" />
<circle cx="575" cy="280" r="3" fill="red" />
<circle cx="554" cy="280" r="3" fill="red" />
<circle cx="764" cy="260" r="3" fill="red" />
<circle cx="701" cy="280" r="3" fill="red" />
<circle cx="743" cy="230" r="3" fill="red" />
<circle cx="722" cy="230" r="3" fill="red" />
<circle cx="680" cy="330" r="3" fill="red" />
<circle cx="722" cy="280" r="3" fill="red" />
<circle cx="701" cy="280" r="3" fill="red" />
<circle cx="659" cy="300" r="3" fill="red" />
<circle cx="638" cy="300" r="3" fill="red" />
<circle cx="701" cy="300" r="3" fill="red" />
<circle cx="638" cy="320" r="3" fill="red" />
<circle cx="680" cy="270" r="3" fill="red" />
<circle cx="659" cy="270" r="3" fill="red" />
<circle cx="659" cy="320" r="3" fill="red" />
<circle cx="638" cy="320" r="3" fill="red" />
<circle cx="596" cy="340" r="3" fill="red" />
<circle cx="575" cy="340" r="3" fill="red" />
<circle cx="617" cy="290" r="3" fill="red" />
<circle cx="785" cy="320" r="3" fill="red" />
<circle cx="827" cy="270" r="3" fill="red" />
<circle cx="806" cy="270" r="3" fill="red" />
<circle cx="743" cy="290" r="3" fill="red" />
<circle cx="785" cy="240" r="3" fill="red" />
<circle cx="743" cy="340" r="3" fill="red" />
<circle cx="722" cy="340" r="3" fill="red" />
<circle cx="764" cy="290" r="3" fill="red" />
<circle cx="701" cy="310" r="3" fill="red" />
<circle cx="722" cy="310" r="3" fill="red" />
<circle cx="659" cy="330" r="3" fill="red" />
<circle cx="701" cy="280" r="3" fill="red" />
<circle cx="680" cy="280" r="3" fill="red" />
<circle cx="680" cy="330" r="3" fill="red" />
<circle cx="659" cy="330" r="3" fill="red" />
<circle cx="617" cy="350" r="3" fill="red" />
<circle cx="596" cy="350" r="3" fill="red" />
<circle cx="806" cy="330" r="3" fill="red" />
<circle cx="848" cy="280" r="3" fill="red" />
<circle cx="827" cy="280" r="3" fill="red" />
<circle cx="764" cy="300" r="3" fill="red" />
<circle cx="764" cy="350" r="3" fill="red" />
<circle cx="743" cy="350" r="3" fill="red" />
<circle cx="785" cy="320" r="3" fill="red" />
<circle cx="764" cy="320" r="3" fill="red" />
<circle cx="701" cy="340" r="3" fill="red" />
<circle cx="743" cy="290" r="3" fill="red" />
<circle cx="722" cy="340" r="3" fill="red" />
<circle cx="659" cy="360" r="3" fill="red" />
<circle cx="848" cy="340" r="3" fill="red" />
<circle cx="890" cy="290" r="3" fill="red" />
<circle cx="806" cy="360" r="3" fill="red" />
<circle cx="659" cy="310" r="3" fill="red" />
<circle cx="596" cy="330" r="3" fill="red" />
<circle cx="638" cy="280" r="3" fill="red" />
<circle cx="617" cy="280" r="3" fill="red" />
<circle cx="743" cy="330" r="3" fill="red" />
<circle cx="785" cy="280" r="3" fill="red" />
<circle cx="764" cy="280" r="3" fill="red" />
<circle cx="722" cy="300" r="3" fill="red" />
<circle cx="701" cy="300" r="3" fill="red" />
<circle cx="722" cy="320" r="3" fill="red" />
<circle cx="701" cy="320" r="3" fill="red" />
<circle cx="659" cy="340" r="3" fill="red" />
<circle cx="638" cy="340" r="3" fill="red" />
<circle cx="680" cy="290" r="3" fill="red" />
<circle cx="806" cy="340" r="3" fill="red" />
<circle cx="785" cy="340" r="3" fill="red" />
<circle cx="827" cy="290" r="3" fill="red" />
<circle cx="764" cy="310" r="3" fill="red" />
<circle cx="785" cy="310" r="3" fill="red" />
<circle cx="722" cy="330" r="3" fill="red" />
<circle cx="764" cy="280" r="3" fill="red" />
<circle cx="743" cy="280" r="3" fill="red" />
<circle cx="743" cy="330" r="3" fill="red" />
<circle cx="722" cy="330" r="3" fill="red" />
<circle cx="680" cy="350" r="3" fill="red" />
<circle cx="659" cy="350" r="3" fill="red" />
<circle cx="869" cy="330" r="3" fill="red" />
<circle cx="911" cy="280" r="3" fill="red" />
<circle cx="890" cy="280" r="3" fill="red" />
<circle cx="827" cy="300" r="3" fill="red" />
<circle cx="827" cy="350" r="3" fill="red" />
<circle cx="806" cy="350" r="3" fill="red" />
<circle cx="848" cy="320" r="3" fill="red" />
<circle cx="827" cy="320" r="3" fill="red" />
<circle cx="764" cy="340" r="3" fill="red" />
<circle cx="806" cy="290" r="3" fill="red" />
<circle cx="785" cy="340" r="3" fill="red" />
<circle cx="722" cy="360" r="3" fill="red" />
<circle cx="911" cy="340" r="3" fill="red" />
<circle cx="953" cy="290" r="3" fill="red" />
<circle cx="869" cy="360" r="3" fill="red" />
<circle cx="764" cy="290" r="3" fill="red" />
<circle cx="701" cy="310" r="3" fill="red" />
<circle cx="743" cy="260" r="3" fill="red" />
<circle cx="722" cy="260" r="3" fill="red" />
<circle cx="722" cy="310" r="3" fill="red" />
<circle cx="701" cy="310" r="3" fill="red" />
<circle cx="659" cy="330" r="3" fill="red" />
<circle cx="638" cy="330" r="3" fill="red" />
<circle cx="848" cy="310" r="3" fill="red" />
<circle cx="890" cy="260" r="3" fill="red" />
<circle cx="869" cy="260" r="3" fill="red" />
<circle cx="806" cy="280" r="3" fill="red" />
<circle cx="806" cy="330" r="3" fill="red" />
<circle cx="785" cy="330" r="3" fill="red" />
<circle cx="827" cy="300" r="3" fill="red" />
<circle cx="806" cy="300" r="3" fill="red" />
<circle cx="743" cy="320" r="3" fill="red" />
<circle cx="785" cy="270" r="3" fill="red" />
<circle cx="764" cy="320" r="3" fill="red" />
<circle cx="701" cy="340" r="3" fill="red" />
<circle cx="890" cy="320" r="3" fill="red" />
<circle cx="932" cy="270" r="3" fill="red" />
<circle cx="848" cy="340" r="3" fill="red" />
<circle cx="848" cy="310" r="3" fill="red" />
<circle cx="827" cy="310" r="3" fill="red" />
<circle cx="764" cy="330" r="3" fill="red" />
<circle cx="911" cy="330" r="3" fill="red" />
<circle cx="890" cy="320" r="3" fill="red" />


</svg>
